# xmcd CD database file
#
# Track frame offsets:
#	150
#	28663
#	55311
#	80572
#	101513
#	119232
#	144141
#	170207
#
# Disc length: 2676 seconds
#
# Revision: 0
# Processed by: cddbd v1.5.2PL0 Copyright (c) Steve Scherf et al.
# Submitted via: CDex 1.75
#
DISCID=6f0a7208
DTITLE=Hanno Busch Trio - Absent
DYEAR=2014
DGENRE=Jazz
TTITLE0=Wheel
TTITLE1=Steward's Theme
TTITLE2=Home
TTITLE3=Not Home
TTITLE4=Skizze
TTITLE5=Remote Control
TTITLE6=Maxi
TTITLE7=Absent
EXTD=YEAR: 2014
EXTT0=
EXTT1=
EXTT2=
EXTT3=
EXTT4=
EXTT5=
EXTT6=
EXTT7=
PLAYORDER=
